<svg id="Layer_1" data-name="Layer 1" xmlns="http://www.w3.org/2000/svg" viewBox="0 0 622.56 257.69" width="110" height="44"><defs><style>.cls-1{fill:none;}.cls-2{fill:#fff;}</style></defs><title>Header-BBC-Logo-edit</title><g id="Clear_Zone_Spacing" data-name="Clear Zone Spacing"><path class="cls-1" d="M-113.24-113V.39H.15V-113Zm79.07,80a18.48,18.48,0,0,1-8.28,6.33,33.62,33.62,0,0,1-12.92,2.23H-80.78V-88.2h23.94q10.58,0,16.39,4.24t5.81,12.18a14.61,14.61,0,0,1-2.08,7.89,14.36,14.36,0,0,1-6.16,5.31,17.05,17.05,0,0,1,8.63,5.93,16.19,16.19,0,0,1,3,9.86A16.37,16.37,0,0,1-34.17-33ZM-50.39-64.16a7.5,7.5,0,0,0,2.65-6.11q0-7.58-10.32-7.58h-9.8V-62h9.8q5,0,7.68-2.19Zm-6,12.18H-67.87v17.22H-56.6q5.81,0,8.93-2.19a7.21,7.21,0,0,0,3.12-6.29q0-8.74-11.88-8.74Z"/></g><g id="BBC_BLOCKS" data-name="BBC BLOCKS"><path class="cls-2" d="M112.73.39V113.78H226.12V.39Zm79.07,80a18.48,18.48,0,0,1-8.28,6.33A33.62,33.62,0,0,1,170.6,89H145.19V25.19h23.94q10.58,0,16.39,4.24t5.81,12.18a14.61,14.61,0,0,1-2.08,7.89,14.36,14.36,0,0,1-6.16,5.31,17.05,17.05,0,0,1,8.63,5.93,16.19,16.19,0,0,1,3,9.86A16.37,16.37,0,0,1,191.8,80.41ZM175.58,49.23a7.5,7.5,0,0,0,2.65-6.11q0-7.57-10.32-7.58h-9.8V51.42h9.8q5,0,7.68-2.19Zm-6,12.18H158.1V78.63h11.27q5.81,0,8.93-2.19a7.21,7.21,0,0,0,3.12-6.29q0-8.75-11.88-8.74Z"/><path class="cls-2" d="M254.46.39V113.78H367.85V.39Zm79.07,80a18.48,18.48,0,0,1-8.28,6.33A33.62,33.62,0,0,1,312.33,89H286.92V25.19h23.94q10.58,0,16.39,4.24t5.81,12.18A14.61,14.61,0,0,1,331,49.5a14.36,14.36,0,0,1-6.16,5.31,17.05,17.05,0,0,1,8.63,5.93,16.19,16.19,0,0,1,3,9.86,16.37,16.37,0,0,1-2.91,9.81ZM317.31,49.23A7.5,7.5,0,0,0,320,43.12q0-7.57-10.32-7.58h-9.8V51.42h9.8q5,0,7.68-2.19Zm-6,12.18H299.83V78.63H311.1q5.81,0,8.93-2.19a7.21,7.21,0,0,0,3.12-6.29q0-8.75-11.88-8.74Z"/><path class="cls-2" d="M396.19,113.77H509.58V.39H396.19V113.78Zm81.43-28.85a36.7,36.7,0,0,1-9.18,3.45,46.65,46.65,0,0,1-11,1.27,39.94,39.94,0,0,1-13.77-2.23,27.14,27.14,0,0,1-16.83-16.7A39.18,39.18,0,0,1,424.61,57,36.17,36.17,0,0,1,427,43.61a28.62,28.62,0,0,1,6.75-10.27,29.75,29.75,0,0,1,10.58-6.56,39.86,39.86,0,0,1,13.82-2.27,44.4,44.4,0,0,1,10,1.09,37.27,37.27,0,0,1,8.78,3.19V41.21a29.57,29.57,0,0,0-8-3.72,32.31,32.31,0,0,0-9.09-1.27,23.77,23.77,0,0,0-11.21,2.45,16.75,16.75,0,0,0-7.11,7.08A23.68,23.68,0,0,0,439,57a24.53,24.53,0,0,0,2.39,11.32,16.35,16.35,0,0,0,6.93,7.13,23,23,0,0,0,11,2.45,34.16,34.16,0,0,0,18.27-5.16V84.92Z"/></g><g id="STUDIOS"><path class="cls-2" d="M32.48,257.59a73.26,73.26,0,0,1-16.17-1.8A61.77,61.77,0,0,1,1,250.1V231a59.73,59.73,0,0,0,31.5,9q9.44,0,14.36-3.19a10,10,0,0,0,4.93-8.88,9.09,9.09,0,0,0-2.43-6.73,17.27,17.27,0,0,0-6.45-3.88q-4-1.46-9-2.71a103.05,103.05,0,0,1-14.43-4.44,41.77,41.77,0,0,1-10.54-5.9,22.15,22.15,0,0,1-6.52-8.19A27,27,0,0,1,.16,184.6,27.47,27.47,0,0,1,5,168.37a30.58,30.58,0,0,1,13.53-10.48q8.74-3.67,20.81-3.68a71.19,71.19,0,0,1,15.61,1.73,54.2,54.2,0,0,1,13.67,4.93v18.87a52.29,52.29,0,0,0-13.81-5.83,58.93,58.93,0,0,0-15.47-2.08q-8.46,0-13.11,2.91a9.28,9.28,0,0,0-4.65,8.33,8.47,8.47,0,0,0,2.22,6.17A16.14,16.14,0,0,0,30.06,193q4.1,1.45,9.64,2.85,7.08,1.8,13.18,3.95a42.58,42.58,0,0,1,10.75,5.48,22.89,22.89,0,0,1,7.22,8.46,28.06,28.06,0,0,1,2.57,12.63,28.84,28.84,0,0,1-4.86,16.86,30.23,30.23,0,0,1-14,10.69q-9.15,3.68-22.06,3.68"/><polygon class="cls-2" points="82.95 156.29 166.76 156.29 166.76 174.88 135.54 174.88 135.54 255.5 114.17 255.5 114.17 174.88 82.95 174.88 82.95 156.29"/><path class="cls-2" d="M224.62,257.59q-13.32,0-22.83-5.07a34.48,34.48,0,0,1-14.57-14.64q-5.07-9.57-5.06-23V156.29h21.37v60.92q0,10.54,5.48,16.16T224.62,239q10.13,0,15.61-5.62t5.48-16.16V156.29h21.37v58.56q0,13.46-5.06,23a34.53,34.53,0,0,1-14.57,14.64q-9.51,5.07-22.83,5.07"/><path class="cls-2" d="M287.75,156.29h37.88q15.81,0,26.92,5.83A39.54,39.54,0,0,1,369.48,179q5.82,11,5.83,26.71t-5.9,26.85a40.07,40.07,0,0,1-17,17.07q-11.1,5.89-26.92,5.9H287.75V156.3Zm36.63,80.9q14,0,21.37-8.12t7.35-23.38c0-10.17-2.43-17.78-7.29-23.1s-12-8-21.3-8h-15.4v62.58h15.27Z"/><rect class="cls-2" x="392.23" y="156.29" width="21.37" height="99.21"/><path class="cls-2" d="M581.23,257.59a73.26,73.26,0,0,1-16.17-1.8,61.77,61.77,0,0,1-15.33-5.69V231a59.73,59.73,0,0,0,31.5,9q9.43,0,14.36-3.19a10,10,0,0,0,4.93-8.88,9.09,9.09,0,0,0-2.43-6.73,17.27,17.27,0,0,0-6.45-3.88q-4-1.46-9-2.71a103.05,103.05,0,0,1-14.43-4.44,41.77,41.77,0,0,1-10.54-5.9,22.15,22.15,0,0,1-6.52-8.19,27,27,0,0,1-2.22-11.45,27.47,27.47,0,0,1,4.79-16.23,30.58,30.58,0,0,1,13.53-10.48q8.74-3.67,20.81-3.68a71.19,71.19,0,0,1,15.61,1.73,54.2,54.2,0,0,1,13.67,4.93v18.87a52.29,52.29,0,0,0-13.81-5.83A58.93,58.93,0,0,0,588,171.83q-8.46,0-13.11,2.91a9.28,9.28,0,0,0-4.65,8.33,8.47,8.47,0,0,0,2.22,6.17,16.14,16.14,0,0,0,6.31,3.75q4.1,1.45,9.64,2.85,7.08,1.8,13.18,3.95a42.58,42.58,0,0,1,10.75,5.48,22.89,22.89,0,0,1,7.22,8.46,28.06,28.06,0,0,1,2.57,12.63,28.84,28.84,0,0,1-4.86,16.86,30.23,30.23,0,0,1-14,10.69q-9.15,3.68-22.06,3.68"/><path class="cls-2" d="M483.47,153.75c-30.05,0-52.94,22.42-52.94,52s23.21,52.15,52.79,52.15,52.94-22.74,52.94-52-23.21-52.15-52.78-52.15m0,19.87c8.9,0,16.22,2.86,22.42,9.06a33.73,33.73,0,0,1,8.91,23c0,17.81-12.72,32.43-31.48,32.43-17.65,0-31.32-13.67-31.32-32.43,0-8.43,3.18-17.17,8.9-22.9a31,31,0,0,1,22.58-9.22"/></g><rect id="SAFE_AREA_PERIMITER" data-name="SAFE AREA PERIMITER" class="cls-1" x="-113.24" y="-113" width="848.79" height="484.27"/></svg>