<?xml version="1.0" encoding="utf-8"?>
<!-- Generator: Adobe Illustrator 23.0.3, SVG Export Plug-In . SVG Version: 6.00 Build 0)  -->
<svg version="1.1" id="Layer_1" xmlns="http://www.w3.org/2000/svg" xmlns:xlink="http://www.w3.org/1999/xlink" x="0px" y="0px"
	 viewBox="0 0 973.1 114" style="enable-background:new 0 0 973.1 114;" xml:space="preserve" width="165" height="18">
<style type="text/css">
	.st0{fill:none;}
</style>
<g id="Clear_Zone_Spacing">
	<path class="st0" d="M-112.9-112.9V0.5H0.5v-113.4H-112.9z M-33.8-32.9c-1.9,2.7-4.7,4.9-8.3,6.3c-3.6,1.5-7.9,2.2-12.9,2.2h-25.4
		v-63.8h23.9c7,0,12.5,1.4,16.4,4.2c3.9,2.8,5.8,6.9,5.8,12.2c0,3-0.7,5.7-2.1,7.9s-3.4,4-6.2,5.3c3.8,1.3,6.6,3.2,8.6,5.9
		c2,2.7,3,6,3,9.9S-31.9-35.6-33.8-32.9z M-50.1-64.1c1.8-1.5,2.7-3.5,2.7-6.1c0-5.1-3.4-7.6-10.3-7.6h-9.8v15.9h9.8
		C-54.4-61.9-51.8-62.6-50.1-64.1L-50.1-64.1z M-56.1-51.9h-11.5v17.2h11.3c3.9,0,6.8-0.7,8.9-2.2s3.1-3.6,3.1-6.3
		C-44.2-49-48.2-51.9-56.1-51.9L-56.1-51.9z"/>
	<path class="st0" d="M973,113.9v113.4h113.4V113.9H973z M1052.1,193.9c-1.9,2.7-4.7,4.9-8.3,6.3c-3.6,1.5-7.9,2.2-12.9,2.2h-25.4
		v-63.8h23.9c7.1,0,12.5,1.4,16.4,4.2s5.8,6.9,5.8,12.2c0,3-0.7,5.7-2.1,7.9s-3.4,4-6.2,5.3c3.8,1.3,6.6,3.2,8.6,5.9
		c2,2.7,3,6,3,9.9S1054,191.2,1052.1,193.9L1052.1,193.9z M1035.9,162.7c1.8-1.5,2.7-3.5,2.7-6.1c0-5-3.4-7.6-10.3-7.6h-9.8v15.9
		h9.8C1031.5,164.9,1034.1,164.2,1035.9,162.7L1035.9,162.7z M1029.8,174.9h-11.5v17.2h11.3c3.9,0,6.8-0.7,8.9-2.2
		c2.1-1.5,3.1-3.5,3.1-6.3C1041.7,177.8,1037.7,174.9,1029.8,174.9L1029.8,174.9z"/>
</g>
<g id="ARTWORK">
	<g id="BBC_BLOCKS">
		<path d="M0.5,0.5v113.4h113.4V0.5H0.5z M79.6,80.5c-1.9,2.7-4.7,4.9-8.3,6.3c-3.6,1.5-7.9,2.2-12.9,2.2H32.9V25.3h23.9
			c7.1,0,12.5,1.4,16.4,4.2s5.8,6.9,5.8,12.2c0,3-0.7,5.7-2.1,7.9s-3.4,4-6.2,5.3c3.8,1.3,6.6,3.2,8.6,5.9c2,2.7,3,6,3,9.9
			S81.5,77.8,79.6,80.5z M63.3,49.3c1.8-1.5,2.6-3.5,2.6-6.1c0-5.1-3.4-7.6-10.3-7.6h-9.8v15.9h9.8C59,51.5,61.6,50.8,63.3,49.3
			L63.3,49.3z M57.3,61.5H45.9v17.2h11.3c3.9,0,6.9-0.7,8.9-2.2c2.1-1.5,3.1-3.6,3.1-6.3C69.2,64.4,65.2,61.5,57.3,61.5L57.3,61.5z"
			/>
		<path d="M142.2,0.5v113.4h113.4V0.5H142.2L142.2,0.5z M221.3,80.5c-1.9,2.7-4.7,4.9-8.3,6.3c-3.6,1.5-7.9,2.2-12.9,2.2h-25.4V25.3
			h23.9c7,0,12.5,1.4,16.4,4.2s5.8,6.9,5.8,12.2c0,3-0.7,5.7-2.1,7.9c-1.4,2.2-3.4,4-6.2,5.3c3.8,1.3,6.6,3.2,8.6,5.9
			c2,2.7,3,6,3,9.9S223.2,77.8,221.3,80.5L221.3,80.5z M205.1,49.3c1.8-1.5,2.6-3.5,2.6-6.1c0-5.1-3.4-7.6-10.3-7.6h-9.8v15.9h9.8
			C200.7,51.5,203.3,50.8,205.1,49.3L205.1,49.3z M199,61.5h-11.5v17.2h11.3c3.9,0,6.9-0.7,8.9-2.2s3.1-3.6,3.1-6.3
			C210.9,64.4,206.9,61.5,199,61.5L199,61.5z"/>
		<path d="M283.9,113.9h113.4V0.5H283.9L283.9,113.9L283.9,113.9z M365.4,85c-2.6,1.5-5.7,2.6-9.2,3.4c-3.5,0.8-7.1,1.3-11,1.3
			c-5.1,0-9.7-0.7-13.8-2.2c-4.1-1.5-7.5-3.6-10.4-6.4c-2.8-2.8-5-6.2-6.5-10.3s-2.3-8.6-2.3-13.7s0.8-9.4,2.3-13.4
			s3.8-7.4,6.8-10.3c2.9-2.9,6.5-5,10.6-6.6c4.1-1.5,8.7-2.3,13.8-2.3c3.5,0,6.9,0.4,10,1.1s6.1,1.8,8.8,3.2v12.4
			c-2.5-1.6-5.1-2.9-8-3.7c-2.9-0.8-5.9-1.3-9.1-1.3c-4.4,0-8.1,0.8-11.2,2.4c-3.1,1.6-5.5,4-7.1,7.1s-2.5,6.9-2.5,11.3
			s0.8,8.2,2.4,11.3c1.6,3.1,3.9,5.5,6.9,7.1c3,1.6,6.7,2.4,11,2.4c6.6,0,12.7-1.7,18.3-5.2L365.4,85L365.4,85z"/>
	</g>
	<g id="STUDIOS">
		<g>
			<path d="M467.6,101.5c-4.7,0-9.3-0.5-13.9-1.6s-8.9-2.7-13.1-4.9V78.6c8.5,5.1,17.5,7.7,27,7.7c5.4,0,9.5-0.9,12.3-2.7
				c2.8-1.8,4.2-4.4,4.2-7.6c0-2.5-0.7-4.4-2.1-5.8s-3.2-2.5-5.5-3.3c-2.3-0.8-4.9-1.6-7.7-2.3c-4.7-1.1-8.8-2.4-12.4-3.8
				s-6.6-3.1-9-5.1c-2.5-1.9-4.3-4.3-5.6-7s-1.9-6-1.9-9.8c0-5.4,1.4-10,4.1-13.9c2.7-3.9,6.6-6.9,11.6-9c5-2.1,10.9-3.2,17.8-3.2
				c4.5,0,9,0.5,13.4,1.5c4.4,1,8.3,2.4,11.7,4.2v16.2c-3.5-2.1-7.4-3.8-11.8-5c-4.4-1.2-8.8-1.8-13.3-1.8c-4.8,0-8.6,0.8-11.2,2.5
				c-2.7,1.7-4,4-4,7.1c0,2.2,0.6,4,1.9,5.3s3.1,2.4,5.4,3.2c2.3,0.8,5.1,1.6,8.3,2.4c4,1,7.8,2.2,11.3,3.4s6.6,2.8,9.2,4.7
				c2.7,1.9,4.7,4.3,6.2,7.3c1.5,2.9,2.2,6.5,2.2,10.8c0,5.6-1.4,10.4-4.2,14.4c-2.8,4-6.8,7.1-12,9.2S474.9,101.5,467.6,101.5"/>
			<polygon points="510.8,14.7 582.7,14.7 582.7,30.6 555.9,30.6 555.9,99.7 537.6,99.7 537.6,30.6 510.8,30.6 			"/>
			<path d="M632.3,101.5c-7.6,0-14.1-1.4-19.6-4.3s-9.6-7.1-12.5-12.6c-2.9-5.5-4.3-12.1-4.3-19.7V14.7h18.3v52.2
				c0,6,1.6,10.6,4.7,13.9c3.1,3.2,7.6,4.8,13.4,4.8s10.3-1.6,13.4-4.8c3.1-3.2,4.7-7.8,4.7-13.9V14.7h18.3v50.2
				c0,7.7-1.5,14.3-4.3,19.7c-2.9,5.5-7.1,9.6-12.5,12.6C646.4,100,639.9,101.5,632.3,101.5"/>
			<path d="M686.4,14.7h32.5c9,0,16.7,1.7,23.1,5s11.2,8.1,14.5,14.4s5,13.9,5,22.9s-1.7,16.6-5,23c-3.4,6.4-8.2,11.3-14.6,14.6
				c-6.3,3.4-14,5.1-23.1,5.1h-32.3L686.4,14.7L686.4,14.7z M717.8,84c8,0,14.1-2.3,18.3-7c4.2-4.6,6.3-11.3,6.3-20
				s-2.1-15.2-6.3-19.8c-4.2-4.6-10.3-6.8-18.3-6.8h-13.2V84H717.8z"/>
			<rect x="775.9" y="14.7" width="18.3" height="85"/>
			<path d="M937.9,101.5c-4.7,0-9.3-0.5-13.9-1.6c-4.6-1-8.9-2.7-13.1-4.9V78.6c8.5,5.1,17.5,7.7,27,7.7c5.4,0,9.5-0.9,12.3-2.7
				c2.8-1.8,4.2-4.4,4.2-7.6c0-2.5-0.7-4.4-2.1-5.8s-3.2-2.5-5.5-3.3s-4.9-1.6-7.7-2.3c-4.7-1.1-8.8-2.4-12.4-3.8s-6.6-3.1-9-5.1
				c-2.5-1.9-4.3-4.3-5.6-7s-1.9-6-1.9-9.8c0-5.4,1.4-10,4.1-13.9c2.7-3.9,6.6-6.9,11.6-9c5-2.1,10.9-3.2,17.8-3.2
				c4.5,0,9,0.5,13.4,1.5c4.4,1,8.3,2.4,11.7,4.2v16.2c-3.5-2.1-7.4-3.8-11.8-5c-4.4-1.2-8.8-1.8-13.3-1.8c-4.8,0-8.6,0.8-11.2,2.5
				c-2.7,1.7-4,4-4,7.1c0,2.2,0.6,4,1.9,5.3s3.1,2.4,5.4,3.2c2.3,0.8,5.1,1.6,8.3,2.4c4,1,7.8,2.2,11.3,3.4s6.6,2.8,9.2,4.7
				c2.7,1.9,4.7,4.3,6.2,7.3c1.5,2.9,2.2,6.5,2.2,10.8c0,5.6-1.4,10.4-4.2,14.4c-2.8,4-6.8,7.1-12,9.2S945.3,101.5,937.9,101.5"/>
			<path d="M854.1,12.5c-25.8,0-45.4,19.2-45.4,44.6s19.9,44.7,45.2,44.7s45.4-19.5,45.4-44.6S879.5,12.5,854.1,12.5 M854.1,29.5
				c7.6,0,13.9,2.4,19.2,7.8c4.9,5.2,7.6,12.4,7.6,19.8c0,15.3-10.9,27.8-27,27.8c-15.1,0-26.8-11.7-26.8-27.8
				c0-7.2,2.7-14.7,7.6-19.6C839.7,32.2,846.8,29.5,854.1,29.5"/>
		</g>
	</g>
	<rect id="SAFE_AREA_PERIMITER" x="-112.9" y="-112.9" class="st0" width="1199.3" height="340.2"/>
</g>
</svg>
